<svg xmlns="http://www.w3.org/2000/svg" version="1.1" xmlns:xlink="http://www.w3.org/1999/xlink" xmlns:svgjs="http://svgjs.dev/svgjs" width="1000" height="623" viewBox="0 0 1000 623"><g transform="matrix(1,0,0,1,-0.6060606060606233,0.2522267206477409)"><svg viewBox="0 0 396 247" data-background-color="#ffffff" preserveAspectRatio="xMidYMid meet" height="623" width="1000" xmlns="http://www.w3.org/2000/svg" xmlns:xlink="http://www.w3.org/1999/xlink"><g id="tight-bounds" transform="matrix(1,0,0,1,0.2400000000000091,-0.09999999999999432)"><svg viewBox="0 0 395.52 247.2" height="247.2" width="395.52"><g><svg></svg></g><g><svg viewBox="0 0 395.52 247.2" height="247.2" width="395.52"><g transform="matrix(1,0,0,1,113.40418693982073,47.215199999999996)"><svg viewBox="0 0 168.71162612035852 152.7696" height="152.7696" width="168.71162612035852"><g><svg viewBox="0 0 168.71162612035852 152.7696" height="152.7696" width="168.71162612035852"><g><svg viewBox="0 0 168.71162612035852 152.7696" height="152.7696" width="168.71162612035852"><g><svg viewBox="0 0 168.71162612035852 152.7696" height="152.7696" width="168.71162612035852"><g><svg viewBox="0 0 168.71162612035852 152.7696" height="152.7696" width="168.71162612035852" id="textblock"><g><svg viewBox="0 0 168.71162612035852 152.7696" height="152.7696" width="168.71162612035852"><g transform="matrix(1,0,0,1,0,0)"><svg width="168.71162612035852" viewBox="0.9222222566604614 -39.04999923706055 43.127777099609375 39.04999923706055" height="152.7696" data-palette-color="#2b2b2b"><path d="M2.85 0L2.85 0Q1.7 0 1.2-0.95 0.7-1.9 1.1-2.8L1.1-2.8 15.8-37.7Q16.35-39.05 17.7-39.05L17.7-39.05Q19-39.05 19.55-37.7L19.55-37.7 34.3-2.75Q34.75-1.8 34.18-0.9 33.6 0 32.55 0L32.55 0Q31.95 0 31.48-0.3 31-0.6 30.7-1.2L30.7-1.2 16.95-34.55 18.5-34.55 4.65-1.2Q4.4-0.6 3.93-0.3 3.45 0 2.85 0ZM29.45-9.3L6.15-9.3 7.65-12.65 27.95-12.65 29.45-9.3ZM42.1 0L42.1 0Q41.25 0 40.7-0.55 40.15-1.1 40.15-1.95L40.15-1.95 40.15-37.1Q40.15-37.95 40.7-38.5 41.25-39.05 42.1-39.05L42.1-39.05Q42.95-39.05 43.5-38.5 44.05-37.95 44.05-37.1L44.05-37.1 44.05-1.95Q44.05-1.1 43.5-0.55 42.95 0 42.1 0Z" opacity="1" transform="matrix(1,0,0,1,0,0)" fill="#2b2b2b" class="undefined-text-0" data-fill-palette-color="primary" id="text-0"></path></svg></g></svg></g></svg></g></svg></g></svg></g></svg></g></svg></g><path d="M99.814 41.215L99.814 0 347.014 0 347.014 247.2 99.814 247.2 99.814 205.985 113.591 205.985 113.591 233.423 333.238 233.423 333.238 13.777 113.591 13.777 113.591 41.215Z" fill="#2b2b2b" stroke="transparent" data-fill-palette-color="primary"></path></svg></g><defs></defs></svg><rect width="395.52" height="247.2" fill="none" stroke="none" visibility="hidden"></rect></g></svg></g></svg>