<?xml version="1.0" standalone="no"?>
<!DOCTYPE svg PUBLIC "-//W3C//DTD SVG 20010904//EN"
 "http://www.w3.org/TR/2001/REC-SVG-20010904/DTD/svg10.dtd">
<svg version="1.0" xmlns="http://www.w3.org/2000/svg"
 width="1000.000000pt" height="161.000000pt" viewBox="0 0 1000.000000 161.000000"
 preserveAspectRatio="xMidYMid meet">

<g transform="translate(0.000000,161.000000) scale(0.100000,-0.100000)"
fill="#000000" stroke="none">
<path d="M8829 1587 c-66 -44 -69 -59 -69 -373 0 -299 1 -304 50 -304 49 0 50
6 50 293 0 166 4 276 10 288 10 18 24 19 271 19 159 0 268 -4 280 -10 38 -21
49 -62 49 -184 0 -133 7 -159 52 -186 28 -17 51 -20 151 -20 125 0 166 -11
187 -49 6 -13 10 -183 10 -479 0 -376 -2 -462 -14 -471 -9 -8 -148 -10 -497
-9 l-484 3 -11 35 c-6 19 -21 40 -33 48 -18 13 -24 12 -47 -3 -23 -15 -26 -22
-21 -56 7 -50 29 -84 70 -109 31 -19 54 -20 541 -20 l509 0 43 44 44 43 0 531
c0 352 -4 540 -11 559 -13 36 -373 398 -415 418 -27 12 -87 15 -357 15 -320 0
-324 0 -358 -23z"/>
<path d="M8193 1483 c-17 -25 -18 -72 -18 -678 0 -606 1 -653 18 -678 21 -32
38 -34 63 -6 18 20 19 46 19 684 0 638 -1 664 -19 684 -25 28 -42 26 -63 -6z"/>
<path d="M30 890 l0 -500 80 0 80 0 0 -85 0 -85 85 0 85 0 0 85 0 85 85 0 85
0 0 80 0 80 85 0 85 0 0 -80 0 -80 80 0 80 0 0 -85 0 -85 85 0 85 0 0 85 0 85
85 0 85 0 0 500 0 500 -170 0 -170 0 0 -335 0 -335 -80 0 -80 0 0 335 0 335
-85 0 -85 0 0 -335 0 -335 -85 0 -85 0 0 335 0 335 -165 0 -165 0 0 -500z"/>
<path d="M3040 1305 l0 -85 85 0 85 0 0 -415 0 -415 -167 -2 -168 -3 -3 -82
-3 -83 506 0 506 0 -3 83 -3 82 -167 3 -168 2 0 500 0 500 -250 0 -250 0 0
-85z"/>
<path d="M4380 1305 l0 -85 85 0 85 0 0 -415 0 -415 -167 -2 -168 -3 -3 -82
-3 -83 506 0 506 0 -3 83 -3 82 -167 3 -168 2 0 500 0 500 -250 0 -250 0 0
-85z"/>
<path d="M1537 1053 c-4 -3 -7 -42 -7 -85 l0 -78 335 0 335 0 0 -85 0 -85
-335 0 -335 0 0 -85 0 -85 -80 0 -80 0 0 -80 0 -80 80 0 80 0 0 -85 0 -85 505
0 505 0 0 335 0 335 -85 0 -85 0 0 85 0 85 -413 0 c-228 0 -417 -3 -420 -7z
m663 -583 l0 -80 -250 0 -250 0 0 80 0 80 250 0 250 0 0 -80z"/>
<path d="M6897 1053 c-4 -3 -7 -42 -7 -85 l0 -78 -80 0 -80 0 0 -250 0 -250
80 0 80 0 0 -85 0 -85 420 0 420 0 0 85 0 85 -335 0 -335 0 0 80 0 80 418 2
417 3 3 168 2 167 -85 0 -85 0 0 85 0 85 -413 0 c-228 0 -417 -3 -420 -7z
m663 -248 l0 -85 -250 0 -250 0 0 85 0 85 250 0 250 0 0 -85z"/>
<path d="M5550 805 l0 -85 505 0 505 0 0 85 0 85 -505 0 -505 0 0 -85z"/>
<path d="M8582 844 c-22 -15 -22 -17 -22 -293 0 -202 3 -280 12 -289 17 -17
1169 -17 1186 0 9 9 12 87 12 289 0 276 0 278 -22 293 -34 24 -1132 24 -1166
0z m602 -293 c48 -96 62 -131 53 -140 -18 -18 -33 -13 -45 14 -11 23 -16 25
-86 25 -68 0 -75 -2 -90 -25 -18 -27 -44 -33 -52 -11 -5 12 93 222 118 254 23
27 41 7 102 -117z m154 -8 c-3 -130 -4 -138 -23 -138 -19 0 -20 8 -23 124 -1
69 0 131 2 138 3 7 15 13 26 13 20 0 20 -4 18 -137z"/>
<path d="M9082 556 c-12 -27 -20 -51 -18 -53 2 -2 22 -3 44 -1 l39 3 -22 50
-22 50 -21 -49z"/>
</g>
</svg>
